<svg viewBox="0 0 148 148" xmlns="http://www.w3.org/2000/svg">
    <path d="M147.998 65.5008C147.998 87.867 130.315 106 108.499 106C86.6837 106 69 87.8686 69 65.4992C69 43.133 86.6837 25 108.499 25C130.315 25 148 43.1314 148 65.4992" fill="#F15D46"/>
    <path d="M25.4995 72.3978C26.6755 72.3978 27.8282 72.5074 28.9655 72.6639C28.5453 70.6921 28.3326 68.6807 28.3311 66.6635C28.3311 50.8336 41.0189 38 56.6668 38C71.8891 38 84.2737 50.1558 84.9344 65.3955C88.051 62.5224 92.1155 60.9296 96.3318 60.9293C105.719 60.9293 113.332 68.6345 113.332 78.1321C113.332 80.2971 112.919 82.3588 112.201 84.2655C113.505 83.9999 114.833 83.8661 116.164 83.8663C127.12 83.8663 136 92.8489 136 103.931C136 115.011 127.12 124 116.164 124H25.4995C11.4144 124 0 112.447 0 98.195C0 83.9493 11.4144 72.3962 25.4995 72.3962" fill="#EFEFED"/>
</svg>
