<svg viewBox="0 0 148 148" xmlns="http://www.w3.org/2000/svg">
    <path d="M147.998 64.8829C147.998 86.9087 130.143 104.767 108.116 104.767C86.0881 104.767 68.2327 86.9087 68.2327 64.8829C68.2327 42.8586 86.0881 25 108.116 25C130.143 25 148 42.8586 148 64.8829" fill="#3B3C40"/>
    <path d="M25.5876 71.3854C26.7677 71.3854 27.9244 71.4909 29.0656 71.6462C28.644 69.691 28.4306 67.6966 28.429 65.6965C28.429 49.9961 41.1607 37.2644 56.8626 37.2644C72.1376 37.2644 84.565 49.3238 85.228 64.4388C88.3554 61.5893 92.4338 60.0096 96.6648 60.0091C106.085 60.0091 113.724 67.6481 113.724 77.0727C113.724 79.2185 113.309 81.2618 112.589 83.156C113.898 82.8924 115.23 82.7592 116.565 82.7585C127.559 82.7585 136.47 91.6661 136.47 102.656C136.47 113.653 127.559 122.561 116.565 122.561H25.5876C11.4539 122.561 0 111.102 0 96.9761C0 82.8408 11.4539 71.3854 25.5876 71.3854Z" fill="#EFEFED"/>
</svg>
