<svg viewBox="0 0 148 148" xmlns="http://www.w3.org/2000/svg">
    <path d="M27.7508 65.3993C29.0339 65.3993 30.2883 65.5153 31.5226 65.6809C31.0668 63.5937 30.836 61.4649 30.8339 59.33C30.8339 42.5798 44.6378 29 61.6695 29C78.2348 29 91.7137 41.8625 92.431 57.9883C95.823 54.9479 100.247 53.2631 104.836 53.264C115.051 53.264 123.334 61.4172 123.334 71.467C123.334 73.7562 122.884 75.9395 122.098 77.9571C123.52 77.6764 124.967 77.5343 126.417 77.533C138.338 77.533 148 87.0412 148 98.764C148 110.492 138.338 120 126.417 120H27.7508C12.4231 120 0 107.775 0 92.698C0 77.6224 12.4231 65.3993 27.7508 65.3993" fill="#EFEFED"/>
</svg>
