<svg viewBox="0 0 148 148" xmlns="http://www.w3.org/2000/svg">
    <g clip-path="url(#clip0_47_12)">
        <path d="M61.0425 54.757C61.9699 54.757 62.877 54.8394 63.7711 54.9636C63.4423 53.4301 63.2757 51.8663 63.2742 50.298C63.2742 37.9855 73.2554 28 85.5693 28C97.5496 28 107.297 37.4568 107.817 49.3086C110.269 47.0752 113.467 45.837 116.784 45.8361C118.541 45.8361 120.281 46.1822 121.904 46.8546C123.528 47.527 125.003 48.5125 126.245 49.755C127.487 50.9974 128.473 52.4724 129.145 54.0958C129.818 55.7191 130.164 57.459 130.164 59.2161C130.163 60.8489 129.86 62.4674 129.27 63.99C130.281 63.7877 131.325 63.6751 132.391 63.6751C141.015 63.6751 148 70.6648 148 79.2824C148 87.9057 141.015 94.8911 132.391 94.8911H61.044C49.9593 94.8911 40.9762 85.9081 40.9762 74.8233C40.9762 63.743 49.9593 54.757 61.044 54.757" fill="#3B3C40"/>
        <path d="M23.8046 72.8647C24.9024 72.8647 25.9785 72.9658 27.0401 73.1102C26.6482 71.2902 26.4497 69.4339 26.4479 67.5722C26.4479 52.963 38.2924 41.1243 52.8987 41.1243C67.1121 41.1243 78.6721 52.3419 79.2889 66.4022C82.1981 63.7508 85.9925 62.2811 89.9287 62.2812C98.6936 62.2812 105.799 69.3908 105.799 78.1557C105.799 80.1519 105.413 82.0557 104.742 83.8151C105.961 83.5682 107.201 83.4443 108.445 83.4453C118.669 83.4453 126.96 91.735 126.96 101.96C126.96 112.184 118.669 120.474 108.445 120.474H23.8046C10.6557 120.474 0 109.817 0 96.6692C0 83.5204 10.6557 72.8647 23.8046 72.8647" fill="#EFEFED"/>
    </g>
    <defs>
        <clipPath id="clip0_47_12">
            <rect width="148" height="148" fill="white"/>
        </clipPath>
    </defs>
</svg>
