<svg viewBox="0 0 148 148" xmlns="http://www.w3.org/2000/svg">
    <path d="M148 42.8806C148 64.9064 130.141 82.7631 108.121 82.7631C86.0917 82.7631 68.2388 64.9044 68.2388 42.8806C68.2388 20.8549 86.0917 3 108.121 3C130.141 3 148 20.8549 148 42.8806" fill="#3B3C40"/>
    <path d="M25.5956 49.3806C26.7746 49.3806 27.9266 49.4866 29.0729 49.6446C28.6501 47.6904 28.4357 45.6969 28.4333 43.6974C28.4333 27.9926 41.1617 15.2641 56.8666 15.2641C72.1438 15.2641 84.5698 27.3241 85.2344 42.4356C88.3614 39.5863 92.4397 38.0074 96.6702 38.0085C98.9105 38.0085 101.129 38.4498 103.199 39.3073C105.268 40.1647 107.149 41.4215 108.733 43.0058C110.317 44.5901 111.573 46.471 112.43 48.5409C113.287 50.6108 113.728 52.8293 113.727 55.0696C113.726 57.1496 113.341 59.2115 112.591 61.1516C113.9 60.8867 115.233 60.7531 116.569 60.7528C127.564 60.7528 136.472 69.6629 136.472 80.6536C136.472 91.6463 127.564 100.556 116.571 100.556H25.5936C11.4627 100.556 0 89.0975 0 74.9685C0 60.8395 11.4627 49.3806 25.5936 49.3806" fill="#EFEFED"/>
    <path d="M91.4397 114.664L92.2546 112.487C92.4473 111.972 92.5367 111.425 92.5177 110.876C92.4987 110.326 92.3717 109.786 92.144 109.286C91.9162 108.786 91.5922 108.335 91.1904 107.96C90.7886 107.586 90.3169 107.293 89.8022 107.101C89.2875 106.908 88.7398 106.819 88.1906 106.838C87.6413 106.857 87.1012 106.984 86.601 107.211C86.1008 107.439 85.6504 107.763 85.2754 108.165C84.9005 108.567 84.6083 109.038 84.4157 109.553L83.6027 111.734C83.3968 112.251 83.2962 112.805 83.3069 113.361C83.3176 113.918 83.4393 114.467 83.6649 114.976C83.8905 115.485 84.2155 115.944 84.6208 116.326C85.026 116.708 85.5035 117.005 86.0251 117.2C86.5467 117.396 87.102 117.484 87.6584 117.462C88.2148 117.44 88.7612 117.307 89.2655 117.07C89.7698 116.834 90.2218 116.5 90.5952 116.086C90.9685 115.673 91.2556 115.19 91.4397 114.664V114.664ZM80.8362 143.011L83.6932 135.378C83.8278 135.018 83.8903 134.636 83.877 134.252C83.8637 133.868 83.7748 133.491 83.6156 133.141C83.4564 132.792 83.2298 132.477 82.949 132.216C82.6681 131.954 82.3384 131.75 81.9786 131.615L79.6167 130.729C78.8909 130.459 78.0873 130.487 77.3825 130.809C76.6778 131.13 76.1295 131.718 75.8581 132.444L73.0011 140.082C72.8665 140.442 72.804 140.824 72.8173 141.207C72.8305 141.591 72.9192 141.968 73.0783 142.317C73.2373 142.666 73.4636 142.98 73.7443 143.242C74.0249 143.503 74.3544 143.707 74.7138 143.841L77.0757 144.725C77.4351 144.86 77.8177 144.923 78.2015 144.91C78.5852 144.897 78.9626 144.808 79.312 144.649C79.6614 144.49 79.9759 144.263 80.2375 143.982C80.499 143.701 80.7025 143.371 80.8362 143.011V143.011ZM63.5111 125.643L66.9422 116.462C67.0771 116.102 67.1398 115.719 67.1266 115.336C67.1134 114.952 67.0246 114.574 66.8654 114.225C66.7061 113.875 66.4795 113.561 66.1984 113.299C65.9174 113.037 65.5875 112.833 65.2277 112.699L62.8658 111.817C62.5063 111.682 62.1238 111.619 61.7401 111.633C61.3564 111.646 60.9791 111.735 60.6297 111.894C60.2804 112.053 59.9659 112.28 59.7043 112.561C59.4427 112.842 59.2391 113.172 59.1052 113.531L55.6741 122.711C55.5395 123.071 55.477 123.453 55.4902 123.836C55.5034 124.22 55.5921 124.597 55.7511 124.946C55.9102 125.296 56.1365 125.61 56.4172 125.872C56.6978 126.134 57.0273 126.337 57.3868 126.472L59.7506 127.358C60.4766 127.629 61.2807 127.601 61.986 127.279C62.6912 126.958 63.2398 126.369 63.5111 125.643V125.643ZM58.3269 139.501L58.8509 138.094C59.1991 137.065 59.1331 135.94 58.6669 134.958C58.2007 133.976 57.3709 133.214 56.353 132.833C55.335 132.452 54.2088 132.482 53.2124 132.916C52.216 133.35 51.4276 134.155 51.0139 135.16L50.486 136.57C50.0975 137.61 50.1379 138.762 50.5983 139.772C51.0588 140.782 51.9016 141.567 52.9414 141.956C53.9811 142.345 55.1327 142.304 56.1427 141.844C57.1526 141.383 57.9383 140.54 58.3269 139.501V139.501ZM48.7348 102.993L50.1296 99.2656C50.3219 98.751 50.4109 98.2036 50.3917 97.6546C50.3724 97.1056 50.2451 96.5658 50.0172 96.0659C49.7893 95.5661 49.4652 95.1161 49.0634 94.7415C48.6615 94.367 48.1898 94.0752 47.6753 93.8829C47.1607 93.6907 46.6133 93.6016 46.0643 93.6209C45.5153 93.6402 44.9754 93.7674 44.4756 93.9953C43.9758 94.2232 43.5257 94.5474 43.1512 94.9492C42.7766 95.351 42.4849 95.8227 42.2926 96.3373L40.8997 100.063C40.6821 100.583 40.5716 101.141 40.5749 101.705C40.5782 102.268 40.6953 102.825 40.919 103.342C41.1427 103.86 41.4686 104.326 41.877 104.714C42.2854 105.103 42.768 105.404 43.2959 105.602C43.8237 105.799 44.386 105.888 44.9489 105.862C45.5118 105.837 46.0638 105.698 46.5719 105.455C47.0799 105.211 47.5335 104.867 47.9055 104.444C48.2775 104.021 48.5603 103.527 48.7368 102.991L48.7348 102.993ZM39.1004 128.764L42.5315 119.588C42.6668 119.229 42.7297 118.846 42.7169 118.462C42.704 118.078 42.6154 117.7 42.4564 117.35C42.2973 117 42.0708 116.685 41.7898 116.423C41.5088 116.161 41.1788 115.956 40.8188 115.822L38.455 114.94C37.7287 114.669 36.9245 114.697 36.2191 115.019C35.5137 115.34 34.9647 115.928 34.6925 116.654L31.2634 125.834C31.1288 126.194 31.0663 126.576 31.0797 126.96C31.093 127.343 31.1819 127.72 31.3411 128.07C31.5004 128.419 31.7269 128.733 32.0077 128.995C32.2886 129.257 32.6183 129.46 32.9779 129.595L35.336 130.481C36.0626 130.752 36.8672 130.724 37.573 130.403C38.2789 130.081 38.8282 129.492 39.1004 128.766" fill="#3B3C40"/>
</svg>
