<svg viewBox="0 0 148 148" xmlns="http://www.w3.org/2000/svg">
    <path d="M84.2322 79.5513L74.4989 85.173L64.7728 79.5513L64.7631 68.3006L74.4965 62.6789L84.2298 68.3079L84.2322 79.5513ZM134.088 78.3274L107.185 85.5396L96.8128 79.5513V68.32L107.058 62.4288L134.088 69.6726C134.886 69.8858 135.718 69.9397 136.536 69.8313C137.355 69.7228 138.144 69.4542 138.859 69.0406C139.574 68.627 140.2 68.0767 140.702 67.421C141.204 66.7653 141.572 66.017 141.785 65.219C141.998 64.4209 142.052 63.5887 141.944 62.7698C141.835 61.951 141.567 61.1614 141.154 60.4464C140.74 59.7313 140.19 59.1048 139.535 58.6024C138.879 58.1001 138.131 57.7318 137.334 57.5186L122.527 53.5458L136.176 45.7021C136.893 45.2918 137.521 44.7442 138.026 44.0905C138.531 43.4368 138.902 42.6898 139.118 41.8925C139.334 41.0951 139.391 40.2629 139.285 39.4436C139.179 38.6243 138.913 37.834 138.501 37.1178C138.091 36.4007 137.544 35.7716 136.89 35.2665C136.237 34.7613 135.49 34.3901 134.693 34.174C133.896 33.9579 133.065 33.9012 132.246 34.0071C131.427 34.1131 130.637 34.3796 129.921 34.7914L116.236 42.6545L120.202 27.8292C120.634 26.2179 120.408 24.5009 119.575 23.0557C118.743 21.6104 117.37 20.5551 115.76 20.1216C112.418 19.2473 108.954 21.2168 108.063 24.5679L100.852 51.4889L90.531 57.419L80.7491 51.7585V39.8886L100.524 20.1046C101.109 19.521 101.573 18.8278 101.889 18.0646C102.206 17.3014 102.369 16.4832 102.369 15.657C102.369 14.8307 102.206 14.0125 101.889 13.2494C101.573 12.4862 101.109 11.793 100.524 11.2094C99.9412 10.6246 99.2487 10.1606 98.4863 9.84398C97.7238 9.52738 96.9065 9.36441 96.081 9.36441C95.2555 9.36441 94.4381 9.52738 93.6756 9.84398C92.9132 10.1606 92.2207 10.6246 91.6378 11.2094L80.7515 22.0983V6.28951C80.7515 4.62143 80.0892 3.02167 78.9102 1.84216C77.7312 0.662649 76.1322 4.21965e-06 74.4649 4.21965e-06C73.6387 -0.000953189 72.8204 0.16102 72.0569 0.476668C71.2933 0.792317 70.5994 1.25545 70.0149 1.83957C69.4303 2.4237 68.9666 3.11738 68.6502 3.88093C68.3338 4.64449 68.171 5.46294 68.171 6.28951V22.0205L57.3696 11.2094C56.7863 10.6244 56.0934 10.1603 55.3306 9.84366C54.5678 9.527 53.75 9.364 52.9241 9.364C52.0982 9.364 51.2804 9.527 50.5175 9.84366C49.7547 10.1603 49.0618 10.6244 48.4785 11.2094C47.8938 11.793 47.4299 12.4862 47.1134 13.2494C46.7969 14.0125 46.634 14.8307 46.634 15.657C46.634 16.4832 46.7969 17.3014 47.1134 18.0646C47.4299 18.8278 47.8938 19.521 48.4785 20.1046L68.171 39.8109V51.8095L58.4692 57.4093L48.146 51.4889L40.9443 24.5679C40.5091 22.9601 39.4555 21.59 38.0138 20.7569C36.572 19.9237 34.8593 19.6953 33.2498 20.1216C31.6383 20.5535 30.2642 21.6082 29.4299 23.0536C28.5955 24.4991 28.3692 26.2169 28.8006 27.8292L32.7716 42.6496L19.0818 34.7914C18.366 34.3796 17.576 34.1131 16.757 34.0071C15.9381 33.9012 15.1063 33.9579 14.3093 34.174C13.5123 34.3901 12.7657 34.7613 12.1123 35.2665C11.4589 35.7716 10.9115 36.4007 10.5014 37.1178C10.0902 37.8339 9.82411 38.624 9.71842 39.4431C9.61274 40.2621 9.66951 41.094 9.88548 41.8911C10.1015 42.6882 10.4724 43.4348 10.9771 44.0884C11.4818 44.7419 12.1103 45.2894 12.8267 45.6997L26.4802 53.5433L11.6592 57.5186C10.8615 57.7327 10.1138 58.102 9.45878 58.6052C8.80373 59.1084 8.25417 59.7358 7.84148 60.4515C7.00801 61.897 6.78261 63.6145 7.21489 65.2263C7.64717 66.838 8.70171 68.2119 10.1465 69.0458C11.5913 69.8796 13.3081 70.1051 14.9191 69.6726L41.9492 62.4239L52.1922 68.3079L52.1971 79.5513L41.8229 85.5494L14.9191 78.3274C13.3081 77.9051 11.5957 78.1357 10.1536 78.9691C8.71164 79.8025 7.65648 81.1715 7.21732 82.7786C7.00302 83.5758 6.94795 84.4075 7.05527 85.2261C7.16259 86.0447 7.4302 86.8341 7.84277 87.5491C8.25534 88.2641 8.80477 88.8906 9.45965 89.393C10.1145 89.8953 10.862 90.2635 11.6592 90.4766L26.4292 94.4397L12.8122 102.305C11.6125 102.996 10.6745 104.064 10.1439 105.343C9.6133 106.622 9.51978 108.04 9.87792 109.378C10.236 110.716 11.0258 111.898 12.1244 112.74C13.2229 113.582 14.5689 114.038 15.9531 114.037C17.0259 114.037 18.1012 113.774 19.0988 113.194L32.7838 105.292L28.8006 120.171C28.5503 121.104 28.518 122.082 28.7062 123.029C28.8944 123.977 29.2981 124.868 29.8859 125.635C30.4738 126.401 31.2302 127.022 32.0963 127.449C32.9625 127.876 33.9153 128.098 34.8809 128.097C36.2647 128.094 37.6089 127.635 38.7051 126.79C39.8014 125.946 40.5885 124.763 40.9443 123.425L48.1848 96.3921L58.4886 90.4498L68.171 96.04V108.189L48.4785 127.9C47.5983 128.779 46.9986 129.899 46.7552 131.119C46.5119 132.339 46.6359 133.604 47.1115 134.753C47.5872 135.903 48.3931 136.885 49.4272 137.576C50.4613 138.266 51.677 138.635 52.9204 138.634C54.5273 138.634 56.1366 138.024 57.3696 136.795L68.171 125.984V141.71C68.171 142.537 68.3337 143.355 68.65 144.118C68.9662 144.882 69.4297 145.575 70.014 146.16C70.5983 146.744 71.2919 147.207 72.0552 147.523C72.8185 147.838 73.6365 148.001 74.4625 148C76.1298 148 77.7288 147.337 78.9078 146.158C80.0868 144.978 80.7491 143.379 80.7491 141.71V125.902L91.6378 136.795C92.866 138.024 94.4777 138.636 96.0797 138.636C97.6963 138.636 99.3032 138.024 100.524 136.795C101.109 136.212 101.572 135.518 101.888 134.755C102.205 133.992 102.368 133.174 102.368 132.348C102.368 131.522 102.205 130.704 101.888 129.94C101.572 129.177 101.109 128.484 100.524 127.9L80.7515 108.109V96.0885L90.5261 90.4498L100.818 96.3921L108.063 123.425C108.275 124.223 108.642 124.972 109.144 125.628C109.646 126.285 110.272 126.835 110.987 127.249C111.701 127.663 112.491 127.931 113.309 128.039C114.128 128.147 114.96 128.093 115.758 127.878C116.556 127.665 117.303 127.296 117.959 126.792C118.614 126.289 119.164 125.662 119.576 124.946C119.989 124.23 120.257 123.44 120.364 122.621C120.471 121.801 120.416 120.969 120.202 120.171L116.214 105.292L129.904 113.194C130.901 113.777 131.982 114.037 133.05 114.037C134.433 114.037 135.779 113.581 136.877 112.738C137.975 111.895 138.764 110.713 139.122 109.376C139.48 108.039 139.387 106.62 138.857 105.341C138.327 104.062 137.389 102.994 136.19 102.303L122.573 94.4397L137.334 90.4766C138.132 90.2646 138.88 89.8971 139.536 89.3952C140.192 88.8933 140.743 88.2669 141.156 87.5518C141.57 86.8367 141.838 86.047 141.946 85.2279C142.054 84.4088 141.999 83.5765 141.785 82.7786C141.351 81.1702 140.297 79.7994 138.856 78.9654C137.414 78.1313 135.701 77.902 134.091 78.3274" fill="#3B3C40"/>
</svg>
